solid ASCII
  facet normal 1.000000e+00 -0.000000e+00 0.000000e+00
    outer loop
      vertex   6.900000e+01 2.400000e+01 1.240000e+02
      vertex   6.900000e+01 2.400000e+01 -3.000000e+01
      vertex   6.900000e+01 4.400000e+01 1.240000e+02
    endloop
  endfacet
  facet normal 1.000000e+00 0.000000e+00 0.000000e+00
    outer loop
      vertex   6.900000e+01 4.400000e+01 1.240000e+02
      vertex   6.900000e+01 2.400000e+01 -3.000000e+01
      vertex   6.900000e+01 4.400000e+01 -3.000000e+01
    endloop
  endfacet
  facet normal 0.000000e+00 0.000000e+00 1.000000e+00
    outer loop
      vertex   -6.900000e+01 2.400000e+01 1.240000e+02
      vertex   6.900000e+01 2.400000e+01 1.240000e+02
      vertex   -6.900000e+01 4.400000e+01 1.240000e+02
    endloop
  endfacet
  facet normal -0.000000e+00 0.000000e+00 1.000000e+00
    outer loop
      vertex   -6.900000e+01 4.400000e+01 1.240000e+02
      vertex   6.900000e+01 2.400000e+01 1.240000e+02
      vertex   6.900000e+01 4.400000e+01 1.240000e+02
    endloop
  endfacet
  facet normal -1.000000e+00 0.000000e+00 0.000000e+00
    outer loop
      vertex   -6.900000e+01 2.400000e+01 -3.000000e+01
      vertex   -6.900000e+01 2.400000e+01 1.240000e+02
      vertex   -6.900000e+01 4.400000e+01 -3.000000e+01
    endloop
  endfacet
  facet normal -1.000000e+00 0.000000e+00 0.000000e+00
    outer loop
      vertex   -6.900000e+01 4.400000e+01 -3.000000e+01
      vertex   -6.900000e+01 2.400000e+01 1.240000e+02
      vertex   -6.900000e+01 4.400000e+01 1.240000e+02
    endloop
  endfacet
  facet normal 0.000000e+00 0.000000e+00 -1.000000e+00
    outer loop
      vertex   6.900000e+01 2.400000e+01 -3.000000e+01
      vertex   -6.900000e+01 2.400000e+01 -3.000000e+01
      vertex   6.900000e+01 4.400000e+01 -3.000000e+01
    endloop
  endfacet
  facet normal -0.000000e+00 0.000000e+00 -1.000000e+00
    outer loop
      vertex   6.900000e+01 4.400000e+01 -3.000000e+01
      vertex   -6.900000e+01 2.400000e+01 -3.000000e+01
      vertex   -6.900000e+01 4.400000e+01 -3.000000e+01
    endloop
  endfacet
  facet normal 0.000000e+00 1.000000e+00 0.000000e+00
    outer loop
      vertex   -6.900000e+01 4.400000e+01 -3.000000e+01
      vertex   -6.900000e+01 4.400000e+01 1.240000e+02
      vertex   6.900000e+01 4.400000e+01 -3.000000e+01
    endloop
  endfacet
  facet normal 0.000000e+00 1.000000e+00 -0.000000e+00
    outer loop
      vertex   6.900000e+01 4.400000e+01 -3.000000e+01
      vertex   -6.900000e+01 4.400000e+01 1.240000e+02
      vertex   6.900000e+01 4.400000e+01 1.240000e+02
    endloop
  endfacet
  facet normal 0.000000e+00 -1.000000e+00 0.000000e+00
    outer loop
      vertex   -6.900000e+01 2.400000e+01 -3.000000e+01
      vertex   6.900000e+01 2.400000e+01 -3.000000e+01
      vertex   -6.900000e+01 2.400000e+01 1.240000e+02
    endloop
  endfacet
  facet normal 0.000000e+00 -1.000000e+00 0.000000e+00
    outer loop
      vertex   -6.900000e+01 2.400000e+01 1.240000e+02
      vertex   6.900000e+01 2.400000e+01 -3.000000e+01
      vertex   6.900000e+01 2.400000e+01 1.240000e+02
    endloop
  endfacet
endsolid
