solid ASCII
  facet normal 0.000000e+00 -1.000000e+00 0.000000e+00
    outer loop
      vertex   -3.900000e+01 -3.900000e+01 9.400000e+01
      vertex   -3.900000e+01 -3.900000e+01 0.000000e+00
      vertex   3.900000e+01 -3.900000e+01 9.400000e+01
    endloop
  endfacet
  facet normal 0.000000e+00 -1.000000e+00 -0.000000e+00
    outer loop
      vertex   3.900000e+01 -3.900000e+01 9.400000e+01
      vertex   -3.900000e+01 -3.900000e+01 0.000000e+00
      vertex   3.900000e+01 -3.900000e+01 0.000000e+00
    endloop
  endfacet
  facet normal 0.000000e+00 0.000000e+00 -1.000000e+00
    outer loop
      vertex   3.900000e+01 -3.900000e+01 0.000000e+00
      vertex   -3.900000e+01 -3.900000e+01 0.000000e+00
      vertex   3.900000e+01 2.400000e+01 0.000000e+00
    endloop
  endfacet
  facet normal -0.000000e+00 0.000000e+00 -1.000000e+00
    outer loop
      vertex   3.900000e+01 2.400000e+01 0.000000e+00
      vertex   -3.900000e+01 -3.900000e+01 0.000000e+00
      vertex   -3.900000e+01 2.400000e+01 0.000000e+00
    endloop
  endfacet
  facet normal -1.000000e+00 0.000000e+00 0.000000e+00
    outer loop
      vertex   -3.900000e+01 -3.900000e+01 0.000000e+00
      vertex   -3.900000e+01 -3.900000e+01 9.400000e+01
      vertex   -3.900000e+01 2.400000e+01 0.000000e+00
    endloop
  endfacet
  facet normal -1.000000e+00 0.000000e+00 0.000000e+00
    outer loop
      vertex   -3.900000e+01 2.400000e+01 0.000000e+00
      vertex   -3.900000e+01 -3.900000e+01 9.400000e+01
      vertex   -3.900000e+01 2.400000e+01 9.400000e+01
    endloop
  endfacet
  facet normal 1.000000e+00 -0.000000e+00 0.000000e+00
    outer loop
      vertex   3.900000e+01 -3.900000e+01 9.400000e+01
      vertex   3.900000e+01 -3.900000e+01 0.000000e+00
      vertex   3.900000e+01 2.400000e+01 9.400000e+01
    endloop
  endfacet
  facet normal 1.000000e+00 0.000000e+00 0.000000e+00
    outer loop
      vertex   3.900000e+01 2.400000e+01 9.400000e+01
      vertex   3.900000e+01 -3.900000e+01 0.000000e+00
      vertex   3.900000e+01 2.400000e+01 0.000000e+00
    endloop
  endfacet
  facet normal 0.000000e+00 0.000000e+00 1.000000e+00
    outer loop
      vertex   -3.900000e+01 -3.900000e+01 9.400000e+01
      vertex   3.900000e+01 -3.900000e+01 9.400000e+01
      vertex   -3.900000e+01 2.400000e+01 9.400000e+01
    endloop
  endfacet
  facet normal 0.000000e+00 0.000000e+00 1.000000e+00
    outer loop
      vertex   -3.900000e+01 2.400000e+01 9.400000e+01
      vertex   3.900000e+01 -3.900000e+01 9.400000e+01
      vertex   3.900000e+01 2.400000e+01 9.400000e+01
    endloop
  endfacet
  facet normal 4.554761e-17 1.000000e+00 -0.000000e+00
    outer loop
      vertex   3.900000e+01 2.400000e+01 0.000000e+00
      vertex   -3.900000e+01 2.400000e+01 0.000000e+00
      vertex   3.900000e+01 2.400000e+01 9.400000e+01
    endloop
  endfacet
  facet normal 4.554761e-17 1.000000e+00 0.000000e+00
    outer loop
      vertex   3.900000e+01 2.400000e+01 9.400000e+01
      vertex   -3.900000e+01 2.400000e+01 0.000000e+00
      vertex   -3.900000e+01 2.400000e+01 9.400000e+01
    endloop
  endfacet
endsolid
